<svg t="1712312546082" class="icon" viewBox="0 0 1024 1024" version="1.1" xmlns="http://www.w3.org/2000/svg" p-id="15887" width="200" height="200"><path d="M166.4 733.44a31.914667 31.914667 0 0 1-22.613333-9.386667 309.845333 309.845333 0 0 1 218.453333-529.066666l259.413333 0.64-46.464-44.544a32 32 0 0 1-0.938666-45.226667 32 32 0 0 1 45.226666-0.938667l104.106667 99.84a32 32 0 0 1-22.229333 55.082667L362.24 258.986667a245.845333 245.845333 0 0 0-173.226667 419.84 32 32 0 0 1-22.613333 54.613333z" p-id="15888" fill="#8a8a8a"></path><path d="M426.666667 928a31.872 31.872 0 0 1-22.144-8.917333l-104.106667-99.84a32 32 0 0 1-7.722667-35.072 31.957333 31.957333 0 0 1 29.866667-20.010667l339.2 0.853333a245.845333 245.845333 0 0 0 173.226667-419.84 32 32 0 0 1 0-45.269333 32 32 0 0 1 45.269333 0 309.845333 309.845333 0 0 1-218.453333 529.066667l-259.413334-0.64 46.421334 44.629333A32 32 0 0 1 426.666667 928z" p-id="15889" fill="#8a8a8a"></path><path d="M522.666667 657.92a32 32 0 0 1-32-32v-144.341333l-8.192 9.130666a32 32 0 0 1-45.141334 2.432 32 32 0 0 1-2.474666-45.184l64-71.210666a32 32 0 0 1 35.242666-8.533334 32 32 0 0 1 20.565334 29.866667v227.84a32 32 0 0 1-32 32z" p-id="15890" fill="#8a8a8a"></path></svg>