<svg t="1712046740382" class="icon" viewBox="0 0 1024 1024" version="1.1" xmlns="http://www.w3.org/2000/svg" p-id="5620" width="200" height="200"><path d="M989.68014 367.3a318 318 0 0 1 34.32 144c0 176.44-143.54 320-320 320H340.14014l69.02 64.82a48 48 0 0 1 1.08 68.94l-21.56 21.54a48 48 0 0 1-67.88 0l-185.36-185.28a48 48 0 0 1 0-67.88L296.00014 572.9a48 48 0 0 1 67.88 0l21.54 21.54a48 48 0 0 1-1.08 68.94l-44.18 40H704.00014a192 192 0 0 0 175.24-270.42 47.56 47.56 0 0 1 9.46-53.26l24.36-24.36a48 48 0 0 1 76.62 11.96z" opacity=".4" p-id="5621" fill="#515151"></path><path d="M612.26014 575.28h-30.98v-168.76c0-15.32-8.18-23.16-23.5-23.16h-24.2c-12.12 0-20 3.22-28.84 11.4l-43.44 39.88c-11.04 10.32-11.76 22-1.08 32.76l11.04 12.46c10.32 11.04 22.44 10.68 31.34 2.14a68.7 68.7 0 0 0 5.7-7.48h0.7s-1.06 10.68-1.06 21v79.76h-30.26c-15.32 0-23.16 8.2-23.16 23.14v17.8c0 14.96 7.84 23.14 23.16 23.14h134.58c15.3 0 23.14-8.18 23.14-23.14v-17.8c0-14.96-7.84-23.14-23.14-23.14z m276.3-353.84L703.20014 36a48 48 0 0 0-67.88 0l-21.56 21.6a48 48 0 0 0 1.08 68.94l69.02 64.84H320.00014c-176.46 0-320 143.54-320 320a318 318 0 0 0 34.32 144 48 48 0 0 0 76.62 12l24.36-24.38a47.54 47.54 0 0 0 9.46-53.26A192 192 0 0 1 320.00014 319.38h363.86l-44.18 40a48 48 0 0 0-1.08 68.92l21.54 21.56a48 48 0 0 0 67.9 0l160.52-160.54a48 48 0 0 0 0-67.88z" p-id="5622" fill="#515151"></path></svg>