<svg t="1711774627138" class="icon" viewBox="0 0 1024 1024" version="1.1" xmlns="http://www.w3.org/2000/svg" p-id="6821" width="200" height="200"><path d="M712.533333 311.466667c11.377778 11.377778 28.444444 11.377778 39.822223 0l9.955555-9.955556c11.377778-11.377778 11.377778-28.444444 0-39.822222-11.377778-11.377778-28.444444-11.377778-39.822222 0l-9.955556 8.533333c-9.955556 11.377778-9.955556 29.866667 0 41.244445zM270.222222 712.533333l-9.955555 9.955556c-11.377778 11.377778-11.377778 28.444444 0 39.822222 11.377778 11.377778 28.444444 11.377778 39.822222 0l9.955555-9.955555c11.377778-11.377778 11.377778-28.444444 0-39.822223-9.955556-9.955556-28.444444-9.955556-39.822222 0zM824.888889 540.444444h42.666667c15.644444 0 28.444444-12.8 28.444444-28.444444s-12.8-28.444444-28.444444-28.444444h-42.666667c-15.644444 0-28.444444 12.8-28.444445 28.444444s12.8 28.444444 28.444445 28.444444zM512 896c15.644444 0 28.444444-12.8 28.444444-28.444444v-42.666667c0-15.644444-12.8-28.444444-28.444444-28.444445s-28.444444 12.8-28.444444 28.444445v42.666667c0 15.644444 12.8 28.444444 28.444444 28.444444zM763.733333 763.733333c11.377778-11.377778 11.377778-28.444444 0-39.822222l-9.955555-11.377778c-11.377778-11.377778-28.444444-11.377778-39.822222 0-11.377778 11.377778-11.377778 28.444444 0 39.822223l9.955555 9.955555c9.955556 12.8 28.444444 12.8 39.822222 1.422222zM483.555556 199.111111v-42.666667c0-15.644444 12.8-28.444444 28.444444-28.444444s28.444444 12.8 28.444444 28.444444v42.666667c0 15.644444-12.8 28.444444-28.444444 28.444445s-28.444444-12.8-28.444444-28.444445zM128 512c0-15.644444 12.8-28.444444 28.444444-28.444444h42.666667c15.644444 0 28.444444 12.8 28.444445 28.444444s-12.8 28.444444-28.444445 28.444444h-42.666667c-15.644444 0-28.444444-12.8-28.444444-28.444444zM260.266667 260.266667c11.377778-11.377778 28.444444-11.377778 39.822222 0l9.955555 9.955555c11.377778 11.377778 11.377778 28.444444 0 39.822222-11.377778 11.377778-28.444444 11.377778-39.822222 0l-9.955555-9.955555c-11.377778-9.955556-11.377778-28.444444 0-39.822222zM512 284.444444c-125.155556 0-227.555556 102.4-227.555556 227.555556s102.4 227.555556 227.555556 227.555556 227.555556-102.4 227.555556-227.555556-102.4-227.555556-227.555556-227.555556z m0 398.222223c-93.866667 0-170.666667-76.8-170.666667-170.666667s76.8-170.666667 170.666667-170.666667 170.666667 76.8 170.666667 170.666667-76.8 170.666667-170.666667 170.666667z" p-id="6822"></path></svg>